<svg xmlns="http://www.w3.org/2000/svg" width="682.667" height="682.667" version="1.0" viewBox="0 0 512 512"><path d="M357 200.5 257.5 300l-54.7-54.7-54.8-54.8-27.7 27.8L92.5 246l82.5 82.5 82.5 82.5 127.3-127.3L512 156.5l-27.8-27.8-27.7-27.7-99.5 99.5z"/><path d="M298 167.5 232.5 233l12.5 12.5 12.5 12.5 65.7-65.7 65.8-65.8-12.2-12.2C370 107.5 364.3 102 364 102c-.3 0-30 29.5-66 65.5zM27.7 218.8 0 246.5l82.3 82.3 82.2 82.2 12.8-12.7 12.7-12.8-69.7-69.7L50.5 246l15-15 15-15L68 203.5 55.5 191l-27.8 27.8z"/></svg>